<svg version="1.2" xmlns="http://www.w3.org/2000/svg" viewBox="0 0 600 300" width="600" height="300">
	<title>wandtech-logo</title>
	<style>
		.s0 { fill: #ddd } 
	</style>
	<g>
		<path class="s0" d="m331.7 68.67c-0.95 6.57-0.31 18.16 1.39 24.89 3.56 13.93 11.91 27.86 22.56 37.76 11.51 10.69 26.12 17.1 41.55 18.28 17.34 1.35 35.9-4.59 43.1-13.73 6.85-8.71 2.1-16.86-16.82-28.81-5.06-3.21-20.62-10.93-30.27-15.08-3.92-1.66-12.27-5.07-18.61-7.56-20.18-7.96-27.11-10.92-36.37-15.67-3.05-1.59-5.7-2.89-5.82-2.97-0.15-0.08-0.47 1.23-0.71 2.89z"/>
		<path class="s0" d="m265.61 81.13c-8.04 0.68-18.8 3.21-24.58 5.82l-2.18 0.99 2.18 0.56c3.24 0.83 10.41 4.47 14.44 7.36 4.44 3.12 11.36 10.01 15.12 15 2.66 3.56 6.77 9.61 16.55 24.42 5.7 8.66 13.85 19.43 18.95 25.09 12.19 13.5 24.82 20.94 40.02 23.67 3.88 0.71 12.7 0.95 17.17 0.43 17.5-1.9 34.83-9.5 53.16-23.31 2.77-2.1 4.98-3.84 4.95-3.88-0.04-0.04-1.59 0.36-3.41 0.87-8.59 2.5-17.14 3.53-25.92 3.21-11.36-0.44-20.5-2.93-30-8.27-5.5-3.09-9.58-6.34-15.75-12.55-6.26-6.29-10.18-11.16-18.45-22.99-7.68-10.97-11.2-15.36-16.38-20.58-6.41-6.42-13.26-10.89-20.35-13.3-6.6-2.26-16.74-3.25-25.52-2.54z"/>
		<path class="s0" d="m210.16 92.26c-4.36 0.47-11.84 2.01-17.26 3.56-10.49 3.01-25.88 9.5-34.55 14.56l-2.89 1.7 4.08 1.55c14.56 5.46 28.57 15.51 46.5 33.4 4.59 4.55 11.28 11.52 14.84 15.44 8.87 9.73 22.09 23.11 28.06 28.37 16.51 14.57 31.19 22.33 48.37 25.49 4.55 0.87 15.83 1.15 21.33 0.6 19.04-1.98 39.58-10.89 60.04-26.05 2.41-1.78 4.43-3.36 4.43-3.44 0-0.12-1.1 0.24-2.45 0.79-3.64 1.43-11.36 3.25-16.66 3.92-22.92 2.93-43.93-5.26-62.02-24.22-8.19-8.59-12.03-13.81-26.99-36.57-8.71-13.22-11.72-17.22-16.71-22.28-8.98-9.07-18.6-14.33-29.72-16.27-4.43-0.75-13.93-1.07-18.4-0.55z"/>
	</g>
</svg>


