<?xml version="1.0" standalone="no"?>
<!DOCTYPE svg PUBLIC "-//W3C//DTD SVG 20010904//EN"
 "http://www.w3.org/TR/2001/REC-SVG-20010904/DTD/svg10.dtd">
<svg version="1.0" xmlns="http://www.w3.org/2000/svg"
 width="758.000000pt" height="758.000000pt" viewBox="0 0 758.000000 758.000000"
 preserveAspectRatio="xMidYMid meet">

<g transform="translate(0.000000,758.000000) scale(0.100000,-0.100000)"
fill="#fda957" stroke="none">
<path class="logo-heartbeat" d="M4591 5845 c-24 -166 -8 -459 35 -629 90 -352 301 -704 570 -954 291
-270 660 -432 1050 -462 438 -34 907 116 1089 347 173 220 53 426 -425 728
-128 81 -521 276 -765 381 -99 42 -310 128 -470 191 -510 201 -685 276 -919
396 -77 40 -144 73 -147 75 -4 2 -12 -31 -18 -73z"/>
<path d="M2921 5530 c-203 -17 -475 -81 -621 -147 l-55 -25 55 -14 c82 -21
263 -113 365 -186 112 -79 287 -253 382 -379 67 -90 171 -243 418 -617 144
-219 350 -491 479 -634 308 -341 627 -529 1011 -598 98 -18 321 -24 434 -11
442 48 880 240 1343 589 70 53 126 97 125 98 -1 1 -40 -9 -86 -22 -217 -63
-433 -89 -655 -81 -287 11 -518 74 -758 209 -139 78 -242 160 -398 317 -158
159 -257 282 -466 581 -194 277 -283 388 -414 520 -162 162 -335 275 -514 336
-167 57 -423 82 -645 64z"/>
<path d="M1520 5249 c-110 -12 -299 -51 -436 -90 -265 -76 -654 -240 -873
-368 l-73 -43 103 -39 c368 -138 722 -392 1175 -844 116 -115 285 -291 375
-390 224 -246 558 -584 709 -717 417 -368 788 -564 1222 -644 115 -22 400 -29
539 -15 481 50 1000 275 1517 658 61 45 112 85 112 87 0 3 -28 -6 -62 -20 -92
-36 -287 -82 -421 -99 -579 -74 -1110 133 -1567 612 -207 217 -304 349 -682
924 -220 334 -296 435 -422 563 -227 229 -470 362 -751 411 -112 19 -352 27
-465 14z"/>
</g>
</svg>
